<svg width="633" height="639" viewBox="0 0 633 639" fill="none" xmlns="http://www.w3.org/2000/svg">
<path fill-rule="evenodd" clip-rule="evenodd" d="M424.892 217.198L418.154 212.722L398.903 207.127L387.353 206.008L385.427 208.246L386.39 284.337L383.502 287.694L379.652 285.456L366.176 286.575L356.551 291.051L348.85 298.884L345 308.955V320.145L350.775 331.335L360.401 336.93H371.952L382.54 332.454L394.09 320.145L398.903 306.717V238.459L401.791 235.102L412.379 237.34L422.005 245.173L423.93 251.887V268.672L431.63 263.077L435.481 253.006V237.34L432.593 227.269L424.892 217.198ZM621.892 168.198L615.154 163.722L595.903 158.127L584.353 157.008L582.427 159.246L583.39 235.337L580.502 238.694L576.652 236.456L563.176 237.575L553.551 242.051L545.85 249.884L542 259.955V271.145L547.775 282.335L557.401 287.93H568.952L579.54 283.454L591.09 271.145L595.903 257.717V189.459L598.791 186.102L609.379 188.34L619.005 196.173L620.93 202.887V219.672L628.63 214.077L632.481 204.006V188.34L629.593 178.269L621.892 168.198ZM193.588 217.198L200.326 212.722L219.577 207.127L231.128 206.008L233.053 208.246L232.09 284.337L234.978 287.694L238.828 285.456L252.304 286.575L261.93 291.051L269.63 298.884L273.481 308.955V320.145L267.705 331.335L258.08 336.93H246.529L235.941 332.454L224.39 320.145L219.577 306.717V238.459L216.69 235.102L206.101 237.34L196.476 245.173L194.551 251.887V268.672L186.85 263.077L183 253.006V237.34L185.888 227.269L193.588 217.198ZM346.468 424.033L341.655 429.628L340.693 432.985L341.655 438.58L346.468 444.175L368.607 463.198L374.382 469.912L366.682 477.745L346.468 494.53L341.655 500.125L340.693 502.363V507.958L341.655 510.195L345.505 514.671L351.281 515.79L393.633 478.864L398.446 473.269L399.409 466.555L393.633 459.841L356.094 427.39L351.281 424.033H346.468ZM259.838 424.033L214.597 462.079L211.71 467.674L212.672 473.269L217.485 478.864L233.849 492.292L255.987 513.552L259.838 515.79H263.688L269.463 510.195V506.839L270.426 505.72L268.501 499.006L236.736 469.912L241.549 464.317L266.576 443.056L270.426 436.342V430.747L269.463 428.509L265.613 424.033H259.838ZM326.254 401.654L323.367 400.535L315.666 401.654L311.816 405.011L303.153 434.104V437.461L293.527 471.031L291.602 474.388V477.745L279.089 520.266L278.126 530.337L282.939 535.932H292.565L295.452 532.575L301.228 513.552V510.196L329.142 412.844V405.011L326.254 401.654ZM479.301 289.755L474.488 294.231L472.563 300.945V459.841L474.488 464.317L478.339 467.674H487.002L492.777 463.198L498.552 454.246L503.365 436.342L504.328 426.271V325.563L502.403 313.254L496.627 298.707L490.852 291.993L487.002 289.755H479.301ZM129.892 289.755L124.117 293.112L119.304 298.707L114.491 309.897L111.604 323.325L110.641 409.487L111.604 410.606V430.747L114.491 447.532L119.304 458.722L124.117 464.317L128.93 467.674L134.705 468.793L138.555 467.674L141.443 464.317L144.331 453.127L143.368 452.008V305.421L144.331 303.183L142.406 295.35L138.555 290.874L129.892 289.755ZM507.215 227.092L483.152 249.472L490.852 286.398L496.627 289.755L505.29 299.826L511.066 321.087V430.747L506.253 454.246L499.515 466.555L502.403 468.793H513.953L531.279 460.96L536.092 455.365L540.905 444.175L557.269 429.628L563.044 417.32L565.932 402.773V346.823L563.044 332.277L558.231 322.206L541.868 307.659L538.017 297.588L532.242 290.874L524.542 287.517L520.691 283.041L515.878 248.353L510.103 229.33L507.215 227.092ZM108.716 227.092L105.829 229.33L100.053 248.353L95.2404 283.041L91.3902 287.517L83.6897 290.874L76.9518 298.707L74.0641 307.659L57.7006 322.206L50.0002 342.347V408.368L51.9253 417.32L57.7006 429.628L75.0267 445.294L82.7271 459.841L90.4276 465.436L101.016 468.793H112.566L116.417 466.555L106.791 447.532L103.903 429.628V324.444L111.604 298.707L126.042 284.16L127.967 267.375L132.78 250.591L108.716 227.092ZM156.844 126.383L165.507 137.573L184.758 149.882L215.56 120.788L245.399 104.003L275.239 95.0513L320.479 92.8133L348.393 97.2893L385.933 111.836L411.922 129.74L431.173 149.882L442.724 144.287L460.05 128.621L432.136 99.5272L402.296 78.2665L361.869 60.3627L322.404 52.5298L279.089 53.6488L228.073 69.3146L189.571 93.9323L156.844 126.383ZM133.743 10.0081L90.4276 59.2436L76.9518 99.5271L75.0266 143.168L99.0906 206.95L160.694 258.423L151.069 279.684V472.15L159.732 514.671L180.908 554.955L214.598 590.763L275.239 628.808L316.629 638.879L409.034 584.049L454.275 521.385L464.863 466.555V287.517L456.2 257.304L504.328 221.497L530.317 183.451L541.868 129.74L534.167 81.6233L505.29 29.0309L477.376 10.0081L486.039 63.7195L481.226 102.884L465.825 131.978L434.061 158.833L407.109 171.142L332.992 111.836L290.64 109.598L206.897 171.142L165.507 147.644L137.593 110.717L129.892 55.8866L142.406 15.6031L133.743 10.0081ZM175.133 343.466L178.983 338.99L197.271 337.871L242.512 342.347L266.576 351.299L308.928 380.393L337.805 358.013L365.719 344.585L394.596 338.99L437.911 340.109L440.799 343.466V448.651L435.023 488.935L426.36 512.434L408.072 540.408L378.232 569.502L311.816 606.428L285.827 598.596L248.287 577.335L224.223 558.312L204.009 535.932L182.833 495.649L176.095 460.96L175.133 343.466ZM343.58 148.763L357.056 154.358L374.382 165.548L390.746 180.094L402.296 193.522L417.697 217.021L427.323 237.163L435.023 260.661L432.136 264.018L421.547 261.78L394.596 260.661L393.633 259.542L343.58 257.304L340.693 253.948V152.12L343.58 148.763ZM272.351 148.763L275.239 152.12V253.948L272.351 257.304L225.186 259.542L224.223 260.661H210.747L209.785 261.78H198.234L183.796 264.018L180.908 259.542L185.721 243.877L196.309 220.378L210.747 196.879L228.073 176.737L236.736 168.904L254.062 156.596L272.351 148.763ZM456 169.949L454.958 192.023L447.663 197.217L322.611 206.307V373.814L314.274 379.008L294.474 377.71L291.347 373.814L290.305 205.008L167.337 197.217L159 192.023V166.053L162.126 162.158L288.221 169.949L291.347 167.352V133.59L305.937 118.008L322.611 133.59L323.653 169.949L452.874 162.158L456 169.949ZM289.953 147.773L286.384 145.151L283.867 134.248L272.701 111.561L258.54 93.0102L250.899 85.587L236.624 75.1016L215.28 63.9513L204.642 60.6651L198.694 56.2962L205.921 36.2529L208.963 19.4729L211.707 14.2456L225.662 19.0629L246.068 30.4297L260.595 42.0053L277.136 62.3034L287.111 84.1172L292.397 107.014L293.68 129.686L292.011 143.852L289.953 147.773ZM249.817 196.527L246.248 193.906L243.731 183.003L232.566 160.315L218.404 141.765L210.763 134.341L196.488 123.856L175.144 112.706L164.506 109.42L158.558 105.051L165.786 85.0073L168.827 68.2273L171.571 63L185.526 67.8173L205.932 79.1841L220.459 90.7597L237 111.058L246.975 132.872L252.261 155.768L253.544 178.44L251.875 192.607L249.817 196.527ZM530.817 133.527L527.248 130.906L524.731 120.003L513.566 97.3152L499.404 78.7647L491.763 71.3414L477.488 60.856L456.144 49.7058L445.506 46.4195L439.558 42.0506L446.786 22.0073L449.827 5.22735L452.571 1.33195e-06L466.526 4.81728L486.932 16.1841L501.459 27.7597L518 48.0578L527.975 69.8717L533.261 92.7681L534.544 115.44L532.875 129.607L530.817 133.527ZM327.527 150.372L325.135 146.646L322.238 132.679L320.742 108.739L324.48 82.145L329.364 68.1416L339.637 50.3756L347.867 40.2324L365.609 24.6462L393.04 9.2916L396.23 14.2598L399.924 29.4689L409.513 51.1561L406.186 54.0785L383.191 65.5366L356.577 88.9159L349.456 98.085L340.448 113.769L332.411 136.369L330.854 147.45L327.527 150.372ZM87.3915 148.127L84.9991 144.401L82.1019 130.434L80.6064 106.494L84.3439 79.8994L89.228 65.896L99.501 48.1301L107.731 37.9868L125.473 22.4007L152.904 7.04603L156.094 12.0143L159.788 27.2233L169.377 48.9106L166.05 51.833L143.055 63.2911L116.441 86.6703L109.32 95.8394L100.312 111.523L92.2756 134.123L90.7182 145.204L87.3915 148.127ZM368.392 197.127L365.999 193.401L363.102 179.434L361.607 155.494L365.344 128.899L370.228 114.896L380.501 97.1301L388.731 86.9868L406.474 71.4007L433.904 56.046L437.094 61.0143L440.789 76.2233L450.377 97.9106L447.05 100.833L424.055 112.291L397.441 135.67L390.32 144.839L381.312 160.523L373.276 183.123L371.718 194.204L368.392 197.127Z" fill="#f0f6fc"/>
</svg>
