<svg width="112" height="111" viewBox="0 0 112 111" fill="none" xmlns="http://www.w3.org/2000/svg">
<path d="M10 54C10 56.7614 7.76142 59 5 59C2.23858 59 0 56.7614 0 54C0 51.2386 2.23858 49 5 49C7.76142 49 10 51.2386 10 54Z" fill="#f0f6fc"/>
<path d="M107 40C107 42.7614 104.761 45 102 45C99.2386 45 97 42.7614 97 40C97 37.2386 99.2386 35 102 35C104.761 35 107 37.2386 107 40Z" fill="#f0f6fc"/>
<circle cx="47" cy="5" r="5" fill="#f0f6fc"/>
<circle cx="74" cy="9" r="5" fill="#f0f6fc"/>
<circle cx="61" cy="5" r="5" fill="#f0f6fc"/>
<circle cx="33" cy="9" r="5" fill="#f0f6fc"/>
<circle cx="20" cy="17" r="5" fill="#f0f6fc"/>
<circle cx="86" cy="17" r="5" fill="#f0f6fc"/>
<circle cx="96" cy="28" r="5" fill="#f0f6fc"/>
<circle cx="12" cy="28" r="5" fill="#f0f6fc"/>
<circle cx="6" cy="40" r="5" fill="#f0f6fc"/>
<path d="M100.255 49.7953C102.053 47.6992 105.209 47.4574 107.306 49.2551C109.402 51.0529 109.643 54.2095 107.846 56.3055C106.048 58.4016 102.891 58.6434 100.795 56.8457C98.6992 55.0479 98.4574 51.8914 100.255 49.7953Z" fill="#f0f6fc"/>
<path d="M3.25513 64.7953C5.05288 62.6992 8.20946 62.4574 10.3055 64.2551C12.4016 66.0529 12.6435 69.2095 10.8457 71.3055C9.04794 73.4016 5.89137 73.6434 3.79529 71.8457C1.69921 70.0479 1.45737 66.8914 3.25513 64.7953Z" fill="#f0f6fc"/>
<circle cx="61.0504" cy="103.05" r="5" transform="rotate(-139.381 61.0504 103.05)" fill="#f0f6fc"/>
<circle cx="33.0504" cy="99.0504" r="5" transform="rotate(-139.381 33.0504 99.0504)" fill="#f0f6fc"/>
<circle cx="46.9455" cy="102.66" r="5" transform="rotate(-139.381 46.9455 102.66)" fill="#f0f6fc"/>
<circle cx="74.0504" cy="100.05" r="5" transform="rotate(-139.381 74.0504 100.05)" fill="#f0f6fc"/>
<circle cx="86.0504" cy="92.0504" r="5" transform="rotate(-139.381 86.0504 92.0504)" fill="#f0f6fc"/>
<circle cx="21.0504" cy="92.0504" r="5" transform="rotate(-139.381 21.0504 92.0504)" fill="#f0f6fc"/>
<circle cx="11.793" cy="79.8934" r="5" transform="rotate(-139.381 11.793 79.8934)" fill="#f0f6fc"/>
<circle cx="102.05" cy="68.0504" r="5" transform="rotate(-139.381 102.05 68.0504)" fill="#f0f6fc"/>
</svg>
