<svg width="617" height="629" viewBox="0 0 617 629" fill="none" xmlns="http://www.w3.org/2000/svg">
<path fill-rule="evenodd" clip-rule="evenodd" d="M512.991 497.949L506.253 493.473L487.001 487.878L475.451 486.759L473.526 488.997L474.488 565.089L471.601 568.446L467.75 566.208L454.275 567.327L444.649 571.803L436.948 579.635L433.098 589.706V600.896L438.874 612.086L448.499 617.681H460.05L470.638 613.205L482.189 600.896L487.001 587.468V519.21L489.889 515.853L500.477 518.091L510.103 525.924L512.028 532.638V549.423L519.728 543.828L523.579 533.757V518.091L520.691 508.02L512.991 497.949ZM346.468 414.025L341.655 419.62L340.693 422.977L341.655 428.572L346.468 434.167L368.607 453.19L374.382 459.904L366.682 467.737L346.468 484.521L341.655 490.116L340.693 492.354V497.949L341.655 500.187L345.505 504.663L351.281 505.782L393.633 468.856L398.446 463.261L399.409 456.547L393.633 449.833L356.094 417.382L351.281 414.025H346.468ZM259.838 414.025L214.597 452.071L211.71 457.666L212.672 463.261L217.485 468.856L233.849 482.284L255.987 503.544L259.838 505.782H263.688L269.463 500.187V496.83L270.426 495.711L268.501 488.997L236.736 459.904L241.549 454.309L266.576 433.048L270.426 426.334V420.739L269.463 418.501L265.613 414.025H259.838ZM326.254 391.646L323.367 390.527L315.666 391.646L311.816 395.003L303.153 424.096V427.453L293.527 461.023L291.602 464.38V467.737L279.089 510.258L278.126 520.329L282.939 525.924H292.565L295.452 522.567L301.228 503.544V500.187L329.142 402.835V395.003L326.254 391.646ZM479.301 279.747L474.488 284.223L472.563 290.937V449.833L474.488 454.309L478.338 457.666H487.002L492.777 453.19L498.552 444.238L503.365 426.334L504.328 416.263V315.554L502.402 303.246L496.627 288.699L490.852 281.985L487.002 279.747H479.301ZM129.892 279.747L124.117 283.104L119.304 288.699L114.491 299.889L111.604 313.316L110.641 399.478L111.604 400.597V420.739L114.491 437.524L119.304 448.714L124.117 454.309L128.93 457.666L134.705 458.785L138.555 457.666L141.443 454.309L144.331 443.119L143.368 442V295.413L144.331 293.175L142.406 285.342L138.555 280.866L129.892 279.747ZM507.215 217.084L483.151 239.463L490.852 276.39L496.627 279.747L505.29 289.818L511.065 311.078V420.739L506.253 444.238L499.515 456.547L502.402 458.785H513.953L531.279 450.952L536.092 445.357L540.905 434.167L557.268 419.62L563.044 407.311L565.931 392.765V336.815L563.044 322.268L558.231 312.197L541.867 297.651L538.017 287.58L532.242 280.866L524.541 277.509L520.691 273.033L515.878 238.344L510.103 219.322L507.215 217.084ZM108.716 217.084L105.828 219.322L100.053 238.344L95.2402 273.033L91.39 277.509L83.6895 280.866L76.9516 288.699L74.0639 297.651L57.7004 312.197L49.9999 332.339V398.359L51.9251 407.311L57.7004 419.62L75.0265 435.286L82.7269 449.833L90.4274 455.428L101.016 458.785H112.566L116.416 456.547L106.791 437.524L103.903 419.62V314.435L111.604 288.699L126.042 274.152L127.967 257.367L132.78 240.582L108.716 217.084ZM156.844 116.375L165.507 127.565L184.758 139.873L215.56 110.78L245.399 93.9949L275.239 85.043L320.479 82.8051L348.393 87.281L385.933 101.828L411.922 119.732L431.173 139.873L442.724 134.278L460.05 118.613L432.136 89.519L402.296 68.2582L361.869 50.3544L322.404 42.5215L279.089 43.6405L228.073 59.3063L189.571 83.924L156.844 116.375ZM133.743 -7.15256e-07L90.4274 49.2354L76.9516 89.519L75.0265 133.159L99.0904 196.942L160.694 248.415L151.069 269.676V462.142L159.732 504.663L180.908 544.947L214.597 580.754L275.239 618.8L316.629 628.871L409.034 574.04L454.275 511.377L464.863 456.547V277.509L456.2 247.296L504.328 211.489L530.317 173.443L541.867 119.732L534.167 71.6152L505.29 19.0228L477.376 -7.15256e-07L486.039 53.7114L481.226 92.8759L465.825 121.97L434.061 148.825L407.109 161.134L332.992 101.828L290.64 99.5899L206.897 161.134L165.507 137.635L137.593 100.709L129.892 45.8785L142.406 5.59494L133.743 -7.15256e-07ZM175.133 333.458L178.983 328.982L197.271 327.863L242.512 332.339L266.576 341.291L308.928 370.385L337.805 348.005L365.719 334.577L394.596 328.982L437.911 330.101L440.799 333.458V438.643L435.023 478.927L426.36 502.425L408.072 530.4L378.232 559.494L311.816 596.42L285.827 588.587L248.287 567.327L224.223 548.304L204.009 525.924L182.833 485.64L176.095 450.952L175.133 333.458ZM343.58 138.754L357.056 144.349L374.382 155.539L390.746 170.086L402.296 183.514L417.697 207.013L427.323 227.154L435.023 250.653L432.136 254.01L421.547 251.772L394.596 250.653L393.633 249.534L343.58 247.296L340.692 243.939V142.111L343.58 138.754ZM272.351 138.754L275.239 142.111V243.939L272.351 247.296L225.186 249.534L224.223 250.653H210.747L209.785 251.772H198.234L183.796 254.01L180.908 249.534L185.721 233.868L196.309 210.37L210.747 186.871L228.073 166.729L236.736 158.896L254.062 146.587L272.351 138.754ZM446.649 201.491L445.687 220.514L438.949 224.99L323.442 232.823V377.172L315.741 381.648L297.453 380.529L294.565 377.172L293.602 231.704L180.02 224.99L172.32 220.514V198.134L175.208 194.777L291.677 201.491L294.565 199.253V170.159L308.041 156.732L323.442 170.159L324.404 201.491L443.761 194.777L446.649 201.491ZM108.716 64.9013L111.604 68.2582V79.4481L117.379 104.066L127.005 125.327L132.78 134.278L144.331 147.706L162.619 163.372L172.245 168.967L177.058 174.562L165.507 192.466L158.769 208.132L154.919 212.608L142.406 204.775L125.08 189.109L113.529 174.562L101.978 151.063L97.1653 127.565V104.066L101.016 81.6861L105.828 68.2582L108.716 64.9013ZM506.253 63.7823L509.14 67.1392L513.953 80.5671L518.766 104.066V130.922L515.878 145.468L508.178 164.491L501.44 175.681L486.039 193.585L461.012 212.608L457.162 208.132L451.387 193.585L438.874 173.443L441.761 170.086L462.938 155.539L486.039 128.684L491.814 118.613L498.552 101.828L503.365 78.3291V67.1392L506.253 63.7823Z" fill="#333333"/>
</svg>
