<svg width="617" height="629" viewBox="0 0 617 629" fill="none" xmlns="http://www.w3.org/2000/svg">
	<path 
		fill-rule="evenodd" 
		clip-rule="evenodd" 
		d="M510.156 497.949L503.418 493.473L484.167 487.878L472.616 486.759L470.691 488.997L471.654 565.089L468.766 568.446L464.916 566.208L451.44 567.327L441.814 571.803L434.114 579.635L430.264 589.706V600.896L436.039 612.086L445.665 617.681H457.215L467.803 613.205L479.354 600.896L484.167 587.468V519.21L487.055 515.853L497.643 518.091L507.268 525.924L509.193 532.638V549.423L516.894 543.828L520.744 533.757V518.091L517.856 508.02L510.156 497.949ZM343.633 414.025L338.821 419.62L337.858 422.977L338.821 428.572L343.633 434.167L365.772 453.19L371.548 459.904L363.847 467.737L343.633 484.522L338.821 490.116L337.858 492.354V497.949L338.821 500.187L342.671 504.663L348.446 505.782L390.799 468.856L395.612 463.261L396.574 456.547L390.799 449.833L353.259 417.382L348.446 414.025H343.633ZM257.003 414.025L211.763 452.071L208.875 457.666L209.838 463.261L214.651 468.856L231.014 482.284L253.153 503.544L257.003 505.782H260.853L266.629 500.187V496.83L267.591 495.711L265.666 488.997L233.902 459.904L238.715 454.309L263.741 433.048L267.591 426.334V420.739L266.629 418.501L262.778 414.025H257.003ZM323.42 391.646L320.532 390.527L312.831 391.646L308.981 395.003L300.318 424.096V427.453L290.693 461.023L288.768 464.38V467.737L276.254 510.258L275.292 520.329L280.105 525.924H289.73L292.618 522.567L298.393 503.544V500.187L326.307 402.835V395.003L323.42 391.646ZM476.466 279.747L471.654 284.223L469.729 290.937V449.833L471.654 454.309L475.504 457.666H484.167L489.942 453.19L495.718 444.238L500.53 426.334L501.493 416.263V315.554L499.568 303.246L493.793 288.699L488.017 281.985L484.167 279.747H476.466ZM127.058 279.747L121.282 283.104L116.47 288.699L111.657 299.889L108.769 313.316L107.807 399.478L108.769 400.597V420.739L111.657 437.524L116.47 448.714L121.282 454.309L126.095 457.666L131.871 458.785L135.721 457.666L138.608 454.309L141.496 443.119L140.534 442V295.413L141.496 293.175L139.571 285.342L135.721 280.866L127.058 279.747ZM504.381 217.084L480.317 239.463L488.017 276.39L493.793 279.747L502.456 289.818L508.231 311.078V420.739L503.418 444.238L496.68 456.547L499.568 458.785H511.119L528.445 450.952L533.257 445.357L538.07 434.167L554.434 419.62L560.209 407.311L563.097 392.765V336.815L560.209 322.268L555.396 312.197L539.033 297.651L535.183 287.58L529.407 280.866L521.707 277.509L517.856 273.033L513.044 238.344L507.268 219.322L504.381 217.084ZM105.881 217.084L102.994 219.322L97.2184 238.344L92.4056 273.033L88.5554 277.509L80.8549 280.866L74.117 288.699L71.2293 297.651L54.8658 312.197L47.1654 332.339V398.359L49.0905 407.311L54.8658 419.62L72.1919 435.286L79.8924 449.833L87.5928 455.428L98.181 458.785H109.732L113.582 456.547L103.956 437.524L101.069 419.62V314.435L108.769 288.699L123.207 274.152L125.133 257.367L129.945 240.582L105.881 217.084ZM154.009 116.375L162.672 127.565L181.924 139.873L212.725 110.78L242.565 93.9949L272.404 85.043L317.644 82.8051L345.558 87.281L383.098 101.828L409.087 119.732L428.339 139.873L439.889 134.278L457.215 118.613L429.301 89.519L399.462 68.2582L359.034 50.3544L319.569 42.5215L276.254 43.6405L225.239 59.3063L186.736 83.924L154.009 116.375ZM130.908 -7.15256e-07L87.5928 49.2354L74.117 89.519L72.1919 133.159L96.2558 196.942L157.86 248.415L148.234 269.676V462.142L156.897 504.663L178.073 544.947L211.763 580.754L272.404 618.8L313.794 628.871L406.2 574.04L451.44 511.377L462.028 456.547V277.509L453.365 247.296L501.493 211.489L527.482 173.443L539.033 119.732L531.332 71.6152L502.456 19.0228L474.541 -7.15256e-07L483.204 53.7114L478.392 92.8759L462.991 121.97L431.226 148.825L404.275 161.134L330.158 101.828L287.805 99.5899L204.062 161.134L162.672 137.635L134.758 100.709L127.058 45.8785L139.571 5.59494L130.908 -7.15256e-07ZM172.298 333.458L176.148 328.982L194.437 327.863L239.677 332.339L263.741 341.291L306.094 370.385L334.97 348.005L362.885 334.577L391.761 328.982L435.076 330.101L437.964 333.458V438.643L432.189 478.927L423.526 502.425L405.237 530.4L375.398 559.494L308.981 596.42L282.992 588.587L245.452 567.327L221.388 548.304L201.175 525.924L179.998 485.64L173.261 450.952L172.298 333.458ZM340.746 138.754L354.222 144.349L371.548 155.539L387.911 170.086L399.462 183.514L414.863 207.013L424.488 227.154L432.189 250.653L429.301 254.01L418.713 251.772L391.761 250.653L390.799 249.534L340.746 247.296L337.858 243.939V142.111L340.746 138.754ZM269.516 138.754L272.404 142.111V243.939L269.516 247.296L222.351 249.534L221.388 250.653H207.913L206.95 251.772H195.399L180.961 254.01L178.073 249.534L182.886 233.868L193.474 210.37L207.913 186.871L225.239 166.729L233.902 158.896L251.228 146.587L269.516 138.754ZM167.485 299.889L168.448 280.866L175.186 276.39L290.693 268.557V124.208L298.393 119.732L316.682 120.851L319.569 124.208L320.532 269.676L434.114 276.39L441.814 280.866V303.246L438.927 306.603L322.457 299.889L319.569 302.127V331.22L306.094 344.648L290.693 331.22L289.73 299.889L170.373 306.603L167.485 299.889ZM105.881 64.9013L108.769 68.2582V79.4481L114.544 104.066L124.17 125.327L129.945 134.278L141.496 147.706L159.785 163.372L169.41 168.967L174.223 174.562L162.672 192.466L155.934 208.132L152.084 212.608L139.571 204.775L122.245 189.109L110.694 174.562L99.1435 151.063L94.3307 127.565V104.066L98.181 81.6861L102.994 68.2582L105.881 64.9013ZM503.418 63.7823L506.306 67.1392L511.119 80.5671L515.931 104.066V130.922L513.044 145.468L505.343 164.491L498.605 175.681L483.204 193.585L458.178 212.608L454.328 208.132L448.552 193.585L436.039 173.443L438.927 170.086L460.103 155.539L483.204 128.684L488.98 118.613L495.718 101.828L500.53 78.3291V67.1392L503.418 63.7823Z" 
		fill="#333"
	/>
</svg>
