<?xml version="1.0" standalone="yes"?><svg xmlns="http://www.w3.org/2000/svg" version="1.1" width="296" height="296" viewBox="0 0 296 296" shape-rendering="crispEdges"><rect x="0" y="0" width="296" height="296" fill="#fff"/><path fill="#000" d="M32 32h8v8H32V32M40 32h8v8H40V32M48 32h8v8H48V32M56 32h8v8H56V32M64 32h8v8H64V32M72 32h8v8H72V32M80 32h8v8H80V32M96 32h8v8H96V32M128 32h8v8H128V32M144 32h8v8H144V32M168 32h8v8H168V32M208 32h8v8H208V32M216 32h8v8H216V32M224 32h8v8H224V32M232 32h8v8H232V32M240 32h8v8H240V32M248 32h8v8H248V32M256 32h8v8H256V32M32 40h8v8H32V40M80 40h8v8H80V40M96 40h8v8H96V40M104 40h8v8H104V40M120 40h8v8H120V40M128 40h8v8H128V40M160 40h8v8H160V40M184 40h8v8H184V40M192 40h8v8H192V40M208 40h8v8H208V40M256 40h8v8H256V40M32 48h8v8H32V48M48 48h8v8H48V48M56 48h8v8H56V48M64 48h8v8H64V48M80 48h8v8H80V48M96 48h8v8H96V48M112 48h8v8H112V48M136 48h8v8H136V48M144 48h8v8H144V48M152 48h8v8H152V48M160 48h8v8H160V48M184 48h8v8H184V48M208 48h8v8H208V48M224 48h8v8H224V48M232 48h8v8H232V48M240 48h8v8H240V48M256 48h8v8H256V48M32 56h8v8H32V56M48 56h8v8H48V56M56 56h8v8H56V56M64 56h8v8H64V56M80 56h8v8H80V56M104 56h8v8H104V56M120 56h8v8H120V56M128 56h8v8H128V56M144 56h8v8H144V56M152 56h8v8H152V56M160 56h8v8H160V56M168 56h8v8H168V56M184 56h8v8H184V56M192 56h8v8H192V56M208 56h8v8H208V56M224 56h8v8H224V56M232 56h8v8H232V56M240 56h8v8H240V56M256 56h8v8H256V56M32 64h8v8H32V64M48 64h8v8H48V64M56 64h8v8H56V64M64 64h8v8H64V64M80 64h8v8H80V64M96 64h8v8H96V64M112 64h8v8H112V64M136 64h8v8H136V64M144 64h8v8H144V64M160 64h8v8H160V64M168 64h8v8H168V64M176 64h8v8H176V64M184 64h8v8H184V64M208 64h8v8H208V64M224 64h8v8H224V64M232 64h8v8H232V64M240 64h8v8H240V64M256 64h8v8H256V64M32 72h8v8H32V72M80 72h8v8H80V72M120 72h8v8H120V72M128 72h8v8H128V72M136 72h8v8H136V72M144 72h8v8H144V72M160 72h8v8H160V72M176 72h8v8H176V72M208 72h8v8H208V72M256 72h8v8H256V72M32 80h8v8H32V80M40 80h8v8H40V80M48 80h8v8H48V80M56 80h8v8H56V80M64 80h8v8H64V80M72 80h8v8H72V80M80 80h8v8H80V80M96 80h8v8H96V80M112 80h8v8H112V80M128 80h8v8H128V80M144 80h8v8H144V80M160 80h8v8H160V80M176 80h8v8H176V80M192 80h8v8H192V80M208 80h8v8H208V80M216 80h8v8H216V80M224 80h8v8H224V80M232 80h8v8H232V80M240 80h8v8H240V80M248 80h8v8H248V80M256 80h8v8H256V80M112 88h8v8H112V88M144 88h8v8H144V88M160 88h8v8H160V88M176 88h8v8H176V88M184 88h8v8H184V88M32 96h8v8H32V96M56 96h8v8H56V96M64 96h8v8H64V96M72 96h8v8H72V96M80 96h8v8H80V96M88 96h8v8H88V96M96 96h8v8H96V96M104 96h8v8H104V96M120 96h8v8H120V96M128 96h8v8H128V96M136 96h8v8H136V96M144 96h8v8H144V96M160 96h8v8H160V96M168 96h8v8H168V96M176 96h8v8H176V96M184 96h8v8H184V96M192 96h8v8H192V96M200 96h8v8H200V96M224 96h8v8H224V96M240 96h8v8H240V96M248 96h8v8H248V96M256 96h8v8H256V96M40 104h8v8H40V104M48 104h8v8H48V104M64 104h8v8H64V104M88 104h8v8H88V104M104 104h8v8H104V104M128 104h8v8H128V104M144 104h8v8H144V104M152 104h8v8H152V104M168 104h8v8H168V104M176 104h8v8H176V104M184 104h8v8H184V104M216 104h8v8H216V104M224 104h8v8H224V104M240 104h8v8H240V104M248 104h8v8H248V104M32 112h8v8H32V112M56 112h8v8H56V112M72 112h8v8H72V112M80 112h8v8H80V112M88 112h8v8H88V112M96 112h8v8H96V112M112 112h8v8H112V112M120 112h8v8H120V112M144 112h8v8H144V112M152 112h8v8H152V112M160 112h8v8H160V112M200 112h8v8H200V112M208 112h8v8H208V112M216 112h8v8H216V112M240 112h8v8H240V112M64 120h8v8H64V120M96 120h8v8H96V120M104 120h8v8H104V120M120 120h8v8H120V120M128 120h8v8H128V120M144 120h8v8H144V120M152 120h8v8H152V120M168 120h8v8H168V120M176 120h8v8H176V120M200 120h8v8H200V120M208 120h8v8H208V120M224 120h8v8H224V120M232 120h8v8H232V120M256 120h8v8H256V120M40 128h8v8H40V128M72 128h8v8H72V128M80 128h8v8H80V128M136 128h8v8H136V128M144 128h8v8H144V128M160 128h8v8H160V128M192 128h8v8H192V128M208 128h8v8H208V128M256 128h8v8H256V128M32 136h8v8H32V136M40 136h8v8H40V136M48 136h8v8H48V136M56 136h8v8H56V136M64 136h8v8H64V136M72 136h8v8H72V136M88 136h8v8H88V136M104 136h8v8H104V136M112 136h8v8H112V136M120 136h8v8H120V136M152 136h8v8H152V136M160 136h8v8H160V136M168 136h8v8H168V136M176 136h8v8H176V136M208 136h8v8H208V136M216 136h8v8H216V136M224 136h8v8H224V136M232 136h8v8H232V136M240 136h8v8H240V136M248 136h8v8H248V136M256 136h8v8H256V136M40 144h8v8H40V144M48 144h8v8H48V144M80 144h8v8H80V144M88 144h8v8H88V144M96 144h8v8H96V144M104 144h8v8H104V144M144 144h8v8H144V144M152 144h8v8H152V144M160 144h8v8H160V144M176 144h8v8H176V144M184 144h8v8H184V144M192 144h8v8H192V144M200 144h8v8H200V144M216 144h8v8H216V144M224 144h8v8H224V144M240 144h8v8H240V144M256 144h8v8H256V144M40 152h8v8H40V152M56 152h8v8H56V152M72 152h8v8H72V152M96 152h8v8H96V152M104 152h8v8H104V152M128 152h8v8H128V152M136 152h8v8H136V152M144 152h8v8H144V152M152 152h8v8H152V152M184 152h8v8H184V152M200 152h8v8H200V152M216 152h8v8H216V152M240 152h8v8H240V152M256 152h8v8H256V152M48 160h8v8H48V160M56 160h8v8H56V160M80 160h8v8H80V160M88 160h8v8H88V160M104 160h8v8H104V160M112 160h8v8H112V160M120 160h8v8H120V160M152 160h8v8H152V160M192 160h8v8H192V160M216 160h8v8H216V160M232 160h8v8H232V160M32 168h8v8H32V168M40 168h8v8H40V168M56 168h8v8H56V168M64 168h8v8H64V168M96 168h8v8H96V168M104 168h8v8H104V168M120 168h8v8H120V168M152 168h8v8H152V168M176 168h8v8H176V168M184 168h8v8H184V168M192 168h8v8H192V168M216 168h8v8H216V168M224 168h8v8H224V168M240 168h8v8H240V168M248 168h8v8H248V168M32 176h8v8H32V176M40 176h8v8H40V176M64 176h8v8H64V176M80 176h8v8H80V176M88 176h8v8H88V176M112 176h8v8H112V176M120 176h8v8H120V176M128 176h8v8H128V176M136 176h8v8H136V176M144 176h8v8H144V176M152 176h8v8H152V176M160 176h8v8H160V176M184 176h8v8H184V176M192 176h8v8H192V176M200 176h8v8H200V176M216 176h8v8H216V176M232 176h8v8H232V176M256 176h8v8H256V176M32 184h8v8H32V184M40 184h8v8H40V184M48 184h8v8H48V184M64 184h8v8H64V184M88 184h8v8H88V184M96 184h8v8H96V184M104 184h8v8H104V184M112 184h8v8H112V184M128 184h8v8H128V184M136 184h8v8H136V184M160 184h8v8H160V184M200 184h8v8H200V184M232 184h8v8H232V184M240 184h8v8H240V184M32 192h8v8H32V192M40 192h8v8H40V192M48 192h8v8H48V192M56 192h8v8H56V192M64 192h8v8H64V192M80 192h8v8H80V192M96 192h8v8H96V192M104 192h8v8H104V192M112 192h8v8H112V192M120 192h8v8H120V192M136 192h8v8H136V192M152 192h8v8H152V192M168 192h8v8H168V192M176 192h8v8H176V192M192 192h8v8H192V192M200 192h8v8H200V192M208 192h8v8H208V192M216 192h8v8H216V192M224 192h8v8H224V192M232 192h8v8H232V192M240 192h8v8H240V192M248 192h8v8H248V192M96 200h8v8H96V200M128 200h8v8H128V200M136 200h8v8H136V200M152 200h8v8H152V200M168 200h8v8H168V200M176 200h8v8H176V200M192 200h8v8H192V200M224 200h8v8H224V200M232 200h8v8H232V200M32 208h8v8H32V208M40 208h8v8H40V208M48 208h8v8H48V208M56 208h8v8H56V208M64 208h8v8H64V208M72 208h8v8H72V208M80 208h8v8H80V208M96 208h8v8H96V208M104 208h8v8H104V208M120 208h8v8H120V208M128 208h8v8H128V208M136 208h8v8H136V208M152 208h8v8H152V208M184 208h8v8H184V208M192 208h8v8H192V208M208 208h8v8H208V208M224 208h8v8H224V208M232 208h8v8H232V208M32 216h8v8H32V216M80 216h8v8H80V216M96 216h8v8H96V216M104 216h8v8H104V216M112 216h8v8H112V216M120 216h8v8H120V216M136 216h8v8H136V216M152 216h8v8H152V216M160 216h8v8H160V216M168 216h8v8H168V216M192 216h8v8H192V216M224 216h8v8H224V216M248 216h8v8H248V216M256 216h8v8H256V216M32 224h8v8H32V224M48 224h8v8H48V224M56 224h8v8H56V224M64 224h8v8H64V224M80 224h8v8H80V224M96 224h8v8H96V224M128 224h8v8H128V224M136 224h8v8H136V224M152 224h8v8H152V224M184 224h8v8H184V224M192 224h8v8H192V224M200 224h8v8H200V224M208 224h8v8H208V224M216 224h8v8H216V224M224 224h8v8H224V224M232 224h8v8H232V224M256 224h8v8H256V224M32 232h8v8H32V232M48 232h8v8H48V232M56 232h8v8H56V232M64 232h8v8H64V232M80 232h8v8H80V232M96 232h8v8H96V232M120 232h8v8H120V232M136 232h8v8H136V232M144 232h8v8H144V232M152 232h8v8H152V232M160 232h8v8H160V232M200 232h8v8H200V232M256 232h8v8H256V232M32 240h8v8H32V240M48 240h8v8H48V240M56 240h8v8H56V240M64 240h8v8H64V240M80 240h8v8H80V240M120 240h8v8H120V240M136 240h8v8H136V240M152 240h8v8H152V240M176 240h8v8H176V240M200 240h8v8H200V240M216 240h8v8H216V240M224 240h8v8H224V240M240 240h8v8H240V240M248 240h8v8H248V240M256 240h8v8H256V240M32 248h8v8H32V248M80 248h8v8H80V248M144 248h8v8H144V248M152 248h8v8H152V248M176 248h8v8H176V248M200 248h8v8H200V248M224 248h8v8H224V248M232 248h8v8H232V248M240 248h8v8H240V248M256 248h8v8H256V248M32 256h8v8H32V256M40 256h8v8H40V256M48 256h8v8H48V256M56 256h8v8H56V256M64 256h8v8H64V256M72 256h8v8H72V256M80 256h8v8H80V256M96 256h8v8H96V256M120 256h8v8H120V256M128 256h8v8H128V256M144 256h8v8H144V256M184 256h8v8H184V256M192 256h8v8H192V256M200 256h8v8H200V256M208 256h8v8H208V256M224 256h8v8H224V256"/></svg>